<?xml version="1.0" encoding="UTF-8" standalone="no"?>
<!-- Created with Inkscape (http://www.inkscape.org/) -->

<svg
   width="130mm"
   height="35mm"
   viewBox="0 0 130 35"
   version="1.1"
   id="svg5"
   inkscape:version="1.1.1 (3bf5ae0d25, 2021-09-20)"
   sodipodi:docname="evolvnft-logo-faucet.svg"
   xmlns:inkscape="http://www.inkscape.org/namespaces/inkscape"
   xmlns:sodipodi="http://sodipodi.sourceforge.net/DTD/sodipodi-0.dtd"
   xmlns="http://www.w3.org/2000/svg"
   xmlns:svg="http://www.w3.org/2000/svg">
  <sodipodi:namedview
     id="namedview7"
     pagecolor="#505050"
     bordercolor="#eeeeee"
     borderopacity="1"
     inkscape:pageshadow="0"
     inkscape:pageopacity="0"
     inkscape:pagecheckerboard="0"
     inkscape:document-units="mm"
     showgrid="false"
     inkscape:zoom="1.4681257"
     inkscape:cx="236.01521"
     inkscape:cy="120.90245"
     inkscape:window-width="1920"
     inkscape:window-height="1009"
     inkscape:window-x="-8"
     inkscape:window-y="-8"
     inkscape:window-maximized="1"
     inkscape:current-layer="text4825" />
  <defs
     id="defs2">
    <rect
       x="182.54568"
       y="280.62991"
       width="325.58521"
       height="103.53337"
       id="rect1783" />
    <rect
       x="165"
       y="876.5"
       width="126.48922"
       height="48.672466"
       id="rect8033-0-7-4-8-40-5" />
  </defs>
  <g
     inkscape:label="Warstwa 1"
     inkscape:groupmode="layer"
     id="layer1">
    <g
       inkscape:label="Warstwa 1"
       id="layer1-0"
       transform="translate(-1.2943088,-2.2433723)"
       inkscape:export-filename="C:\Users\48881\Desktop\foldery\evolvnft-logo-faucet.svg"
       inkscape:export-xdpi="96"
       inkscape:export-ydpi="96">
      <g
         id="g10973-0-0"
         transform="matrix(1.4660234,0,0,1.4660234,-55.16684,-382.80628)">
        <path
           id="rect1180-4-9-4-9-3-8-2-60-3"
           style="fill:#6366f1;stroke:none;stroke-width:0.026;stroke-dasharray:none"
           d="m 47.335978,263.48072 c -0.134491,0 -0.268778,0.033 -0.390669,0.0982 -0.01096,0.005 -0.02121,0.0113 -0.03161,0.0175 -0.0017,10e-4 -0.0026,0.002 -0.0042,0.003 -0.0116,0.007 -0.02326,0.0148 -0.03507,0.0224 -0.01131,0.007 -0.02185,0.0148 -0.0326,0.0227 -5.02e-4,3.7e-4 -8.98e-4,5.1e-4 -0.0017,10e-4 -0.03352,0.025 -0.06619,0.0521 -0.09673,0.0826 -0.01018,0.0102 -0.02045,0.021 -0.03005,0.0315 l -2.990001,2.99 c -0.325849,0.32585 -0.325849,0.85031 0,1.17616 0.325849,0.32585 0.85082,0.32585 1.176668,0 l 1.609206,-1.6092 v 6.65024 c 7e-6,0.48265 0.368834,0.87126 0.827308,0.87129 0.458516,0 0.827866,-0.38862 0.827852,-0.87127 l 7e-6,-6.64094 1.603004,1.603 c 0.325849,0.32585 0.850296,0.32585 1.176145,0 0.325849,-0.32585 0.325856,-0.85083 7e-6,-1.17668 l -2.960543,-2.96054 -0.0019,-0.002 c -0.01768,-0.0219 -0.03627,-0.0434 -0.05664,-0.0637 -0.162924,-0.16293 -0.375962,-0.24444 -0.588589,-0.24443 z" />
        <path
           id="rect1180-4-9-4-9-3-8-2-6-3-1"
           style="fill:#6366f1;stroke:#312e81;stroke-width:0.0171955;stroke-dasharray:none"
           d="m 42.143396,268.9018 c -0.08895,0 -0.17776,0.0218 -0.258375,0.0649 -0.0072,0.003 -0.01403,0.007 -0.02091,0.0116 -0.0011,6.6e-4 -0.0017,0.001 -0.0028,0.002 -0.0077,0.005 -0.01538,0.01 -0.02319,0.0148 -0.0075,0.005 -0.01445,0.01 -0.02156,0.015 -3.32e-4,2.4e-4 -5.94e-4,3.4e-4 -0.0011,6.6e-4 -0.02217,0.0165 -0.04378,0.0345 -0.06397,0.0546 -0.0067,0.007 -0.01353,0.0139 -0.01987,0.0208 l -1.977488,1.97749 c -0.215506,0.21551 -0.215506,0.56237 0,0.77787 0.215505,0.21551 0.562704,0.21551 0.778209,0 l 1.064276,-1.06427 v 4.39825 c 5e-6,0.31921 0.243935,0.57623 0.547155,0.57625 0.303247,0 0.547523,-0.25703 0.547514,-0.57623 l 4e-6,-4.3921 1.060174,1.06017 c 0.215506,0.2155 0.562358,0.2155 0.777864,0 0.215506,-0.21551 0.215511,-0.56271 5e-6,-0.77822 l -1.958006,-1.958 -0.0013,-10e-4 c -0.01169,-0.0145 -0.02399,-0.0287 -0.03746,-0.0421 -0.107752,-0.10775 -0.248648,-0.16166 -0.389273,-0.16165 z" />
        <path
           id="rect1180-4-9-4-9-3-8-2-6-6-9-0"
           style="fill:#6366f1;stroke:#312e81;stroke-width:0.0124788;stroke-dasharray:none"
           d="m 45.229894,274.49289 c -0.06455,0 -0.129002,0.0158 -0.187504,0.0471 -0.0052,0.002 -0.01018,0.005 -0.01518,0.009 -7.97e-4,4.7e-4 -0.0012,7.2e-4 -0.002,0.002 -0.0056,0.004 -0.01116,0.008 -0.01683,0.0108 -0.0054,0.004 -0.01049,0.008 -0.01565,0.0109 -2.41e-4,1.8e-4 -4.31e-4,2.5e-4 -7.99e-4,4.8e-4 -0.01609,0.012 -0.03177,0.025 -0.04642,0.0396 -0.0049,0.005 -0.0098,0.0101 -0.01442,0.0151 l -1.435071,1.43507 c -0.156393,0.1564 -0.156393,0.40812 0,0.56451 0.156393,0.15639 0.408356,0.15639 0.56475,0 l 0.772348,-0.77235 v 3.19183 c 4e-6,0.23165 0.177025,0.41817 0.397073,0.41818 0.220067,0 0.39734,-0.18652 0.397333,-0.41816 l 3e-6,-3.18737 0.769372,0.76936 c 0.156394,0.15639 0.408105,0.15639 0.5645,0 0.156393,-0.15638 0.156397,-0.40836 2e-6,-0.56474 l -1.420932,-1.42093 -9.43e-4,-7.3e-4 c -0.0085,-0.0106 -0.01741,-0.0208 -0.02718,-0.0306 -0.0782,-0.0782 -0.180445,-0.11732 -0.282497,-0.11731 z" />
      </g>
      <g
         aria-label="evolvnft"
         id="text5902"
         style="font-size:25.4px;font-family:'Cal Sans';-inkscape-font-specification:'Cal Sans';fill:#6366f1;stroke:#000000;stroke-width:0">
        <path
           d="m 30.998431,24.494081 c 2.6162,0 4.826,-1.1684 5.8928,-2.8194 l -2.667,-2.0066 c -0.6096,1.016 -1.7526,1.778 -3.2258,1.778 -1.7272,0 -2.8956,-1.0922 -3.2766,-2.6416 h 9.8806 c 0.0762,-0.4318 0.1016,-0.8382 0.1016,-1.2192 0,-3.81 -2.7432,-6.959599 -6.7056,-6.959599 -3.9624,0 -6.8326,3.149599 -6.8326,6.959599 0,3.81 2.7432,6.9088 6.8326,6.9088 z m -3.2766,-8.255 c 0.381,-1.5748 1.6002,-2.667 3.2258,-2.667 1.6764,0 2.921,1.1938 3.302,2.667 z"
           style="fill:#000000;stroke:none"
           id="path7372" />
        <path
           d="m 42.555426,24.163881 h 3.4544 l 5.4864,-13.207999 h -3.9878 l -2.6416,7.543799 c -0.2286,0.635 -0.4318,1.4224 -0.5588,2.1082 -0.127,-0.6858 -0.3302,-1.4732 -0.5588,-2.1082 l -2.6416,-7.543799 h -4.064 z"
           style="fill:#000000;stroke:none"
           id="path7374" />
        <path
           d="m 57.820791,24.494081 c 4.0894,0 7.0358,-3.0988 7.0358,-6.9088 0,-3.81 -2.9464,-6.934199 -7.0358,-6.934199 -4.0894,0 -7.0358,3.124199 -7.0358,6.934199 0,3.81 2.9464,6.9088 7.0358,6.9088 z m -3.6068,-6.9088 c 0,-2.0574 1.4224,-3.81 3.6068,-3.81 2.1844,0 3.6068,1.7526 3.6068,3.81 0,2.0574 -1.4224,3.7846 -3.6068,3.7846 -2.1844,0 -3.6068,-1.7272 -3.6068,-3.7846 z"
           style="fill:#000000;stroke:none"
           id="path7376" />
        <path
           d="m 66.380588,24.163881 h 3.429 V 5.6218816 h -3.429 z"
           style="fill:#000000;stroke:none"
           id="path7378" />
        <path
           d="m 75.95639,24.163881 h 3.4544 l 5.4864,-13.207999 h -3.9878 l -2.6416,7.543799 c -0.2286,0.635 -0.4318,1.4224 -0.5588,2.1082 -0.127,-0.6858 -0.3302,-1.4732 -0.5588,-2.1082 l -2.6416,-7.543799 h -4.064 z"
           style="fill:#000000;stroke:none"
           id="path7380" />
        <path
           d="m 85.53218,24.163881 h 3.429 v -7.239 c 0,-2.286 1.2954,-3.2766 2.7432,-3.2766 1.7018,0 2.8448,0.9906 2.8448,3.2766 v 7.239 h 3.429 v -8.0772 c 0,-3.3274 -2.1844,-5.435599 -5.0292,-5.435599 -2.032,0 -3.3528,0.761999 -4.0386,2.235199 v -1.930399 h -3.3782 z"
           style="stroke:none"
           id="path7382" />
        <path
           d="m 100.59438,10.066882 v 0.889 h -1.854196 v 2.920999 h 1.854196 v 10.287 h 3.429 v -10.287 h 2.6924 v -2.920999 h -2.6924 v -0.8382 c 0,-1.0414005 0.4826,-1.5748005 1.4986,-1.5748005 h 0.889 V 5.6218816 h -1.4224 c -2.667,0 -4.3942,1.778 -4.3942,4.4450004 z"
           style="stroke:none"
           id="path7384" />
        <path
           d="m 113.11658,24.163881 h 1.8796 v -3.048 h -1.4224 c -0.6604,0 -1.0668,-0.381 -1.0668,-1.2192 v -6.0198 h 2.794 v -2.920999 h -2.794 V 7.9332815 l -3.429,0.3556 v 2.6670005 h -1.8542 v 2.920999 h 1.8542 v 6.1976 c 0,2.8702 1.4224,4.0894 4.0386,4.0894 z"
           style="stroke:none"
           id="path7386" />
      </g>
    </g>
    <text
       xml:space="preserve"
       transform="scale(0.26458333)"
       id="text1781"
       style="font-style:normal;font-weight:normal;font-size:40px;line-height:1.25;font-family:sans-serif;white-space:pre;shape-inside:url(#rect1783);fill:#000000;fill-opacity:1;stroke:none" />
    <g
       aria-label="faucet"
       id="text4825"
       style="font-size:12.7px;line-height:1.25;stroke-width:0.264583">
      <path
         d="m 94.702779,33.758457 v -4.2037 h -0.9017 v -1.0541 h 0.9017 v -2.2225 q 0,-1.143 0.508,-1.7526 0.5207,-0.6096 1.524,-0.6096 0.2667,0 0.5842,0.0762 0.3302,0.0762 0.5715,0.254 l -0.4953,0.8509 q -0.1143,-0.1143 -0.254,-0.1524 -0.1397,-0.0508 -0.2794,-0.0508 -0.4699,0 -0.7239,0.3175 -0.254,0.3175 -0.254,1.0795 v 2.2098 h 1.6637 v 1.0541 h -1.6637 v 4.2037 z"
         style="font-family:'Josefin Sans';-inkscape-font-specification:'Josefin Sans, Normal'"
         id="path12051" />
      <path
         d="m 100.93846,33.885457 q -0.7366,0 -1.346197,-0.3175 -0.5969,-0.3175 -0.9525,-0.9271 -0.3429,-0.6223 -0.3429,-1.5113 0,-0.8763 0.3683,-1.5113 0.3683,-0.6477 0.9779,-0.9906 0.622297,-0.3429 1.358897,-0.3429 0.7366,0 1.2446,0.3429 0.508,0.3302 0.7747,0.7874 l -0.0762,0.2032 0.1143,-1.1176 h 1.0922 v 5.2578 h -1.1811 v -1.3716 l 0.127,0.3048 q -0.0508,0.127 -0.2286,0.3302 -0.1651,0.1905 -0.4572,0.3937 -0.2794,0.2032 -0.6477,0.3429 -0.3683,0.127 -0.8255,0.127 z m 0.3175,-0.9779 q 0.4445,0 0.8001,-0.1651 0.3556,-0.1651 0.5842,-0.4572 0.2413,-0.3048 0.3302,-0.7239 v -1.0287 q -0.1016,-0.381 -0.3556,-0.6604 -0.254,-0.2921 -0.6096,-0.4445 -0.3556,-0.1651 -0.7874,-0.1651 -0.4699,0 -0.8636,0.2286 -0.393697,0.2286 -0.634997,0.635 -0.2286,0.4064 -0.2286,0.9525 0,0.508 0.2413,0.9271 0.2413,0.4191 0.647697,0.6604 0.4064,0.2413 0.8763,0.2413 z"
         style="font-family:'Josefin Sans';-inkscape-font-specification:'Josefin Sans, Normal'"
         id="path12053" />
      <path
         d="m 107.85994,33.961657 q -0.7112,0 -1.1811,-0.4318 -0.4572,-0.4445 -0.4826,-1.143 v -3.8862 h 1.1811 v 3.4671 q 0.0254,0.4318 0.2413,0.6985 0.2286,0.2667 0.7112,0.2794 0.4445,0 0.7874,-0.254 0.3556,-0.2667 0.5715,-0.7112 0.2159,-0.4572 0.2159,-1.0287 v -2.4511 h 1.1811 v 5.2578 h -1.0795 l -0.1016,-1.2954 0.0635,0.2286 q -0.1524,0.3683 -0.4699,0.6604 -0.3048,0.2794 -0.7239,0.4445 -0.4191,0.1651 -0.9144,0.1651 z"
         style="font-family:'Josefin Sans';-inkscape-font-specification:'Josefin Sans, Normal'"
         id="path12055" />
      <path
         d="m 117.39764,33.275857 q -0.3556,0.2794 -0.8509,0.4445 -0.4953,0.1651 -0.9906,0.1651 -0.8636,0 -1.5113,-0.3429 -0.6477,-0.3429 -1.016,-0.9525 -0.3556,-0.6223 -0.3556,-1.4605 0,-0.8382 0.381,-1.4605 0.3937,-0.6223 1.016,-0.9525 0.635,-0.3429 1.3589,-0.3429 0.635,0 1.1303,0.1778 0.508,0.1778 0.8636,0.4826 l -0.5842,0.762 q -0.2286,-0.1778 -0.5588,-0.3175 -0.3302,-0.1397 -0.7493,-0.1397 -0.4572,0 -0.8509,0.2413 -0.381,0.2286 -0.6096,0.635 -0.2159,0.4064 -0.2159,0.9144 0,0.4826 0.2286,0.9017 0.2286,0.4064 0.635,0.6477 0.4064,0.2286 0.9271,0.2286 0.3429,0 0.6223,-0.1016 0.2921,-0.1016 0.5207,-0.2794 z"
         style="font-family:'Josefin Sans';-inkscape-font-specification:'Josefin Sans, Normal'"
         id="path12057" />
      <path
         d="m 121.36003,33.885457 q -0.9017,0 -1.5494,-0.3556 -0.6477,-0.3683 -1.0033,-0.9906 -0.3429,-0.635 -0.3429,-1.4478 0,-0.7747 0.3937,-1.4097 0.3937,-0.635 1.0541,-1.016 0.6604,-0.381 1.4732,-0.381 1.0414,0 1.7272,0.6096 0.6858,0.6096 0.9271,1.6764 l -4.3307,1.524 -0.2794,-0.6985 3.556,-1.2954 -0.254,0.1651 q -0.1524,-0.4191 -0.508,-0.7239 -0.3556,-0.3175 -0.9271,-0.3175 -0.4826,0 -0.8636,0.2413 -0.381,0.2286 -0.5969,0.635 -0.2159,0.4064 -0.2159,0.9271 0,0.5461 0.2286,0.9652 0.2286,0.4064 0.6223,0.6477 0.4064,0.2286 0.9144,0.2286 0.3429,0 0.6604,-0.127 0.3302,-0.127 0.6096,-0.3302 l 0.5461,0.8763 q -0.3937,0.2667 -0.889,0.4318 -0.4826,0.1651 -0.9525,0.1651 z"
         style="font-family:'Josefin Sans';-inkscape-font-specification:'Josefin Sans, Normal'"
         id="path12059" />
      <path
         d="m 126.03361,26.189257 h 1.1811 v 2.3368 h 1.4478 v 0.9271 h -1.4478 v 4.3053 h -1.1811 v -4.3053 h -0.9652 v -0.9271 h 0.9652 z"
         style="font-family:'Josefin Sans';-inkscape-font-specification:'Josefin Sans, Normal'"
         id="path12061" />
    </g>
  </g>
</svg>
